<svg t="1777644692691" class="icon" viewBox="0 0 1251 1024" version="1.1" xmlns="http://www.w3.org/2000/svg" p-id="6840" width="200" height="200"><path d="M113.777778 1024a113.777778 113.777778 0 0 1-113.777778-113.777778V113.777778a113.777778 113.777778 0 0 1 113.777778-113.777778h1024a113.777778 113.777778 0 0 1 113.777778 113.777778v796.444444a113.777778 113.777778 0 0 1-113.777778 113.777778zM85.333333 113.777778v796.444444a28.444444 28.444444 0 0 0 28.444445 28.444445h1024a28.444444 28.444444 0 0 0 28.444444-28.444445V113.777778a28.444444 28.444444 0 0 0-28.444444-28.444445H113.777778a28.444444 28.444444 0 0 0-28.444445 28.444445z m525.653334 640a42.666667 42.666667 0 1 1 0-85.333334h341.333333a42.666667 42.666667 0 1 1 0 85.333334z m-304.071111-41.756445a45.511111 45.511111 0 0 1 0-64.056889L442.823111 512l-135.964444-135.964444A45.511111 45.511111 0 0 1 370.915556 312.035556l140.003555 140.003555a84.992 84.992 0 0 1 0 120.035556l-139.946667 139.946666a45.511111 45.511111 0 0 1-64.056888 0z" fill="#808080" p-id="6841"></path></svg>